<svg xmlns="http://www.w3.org/2000/svg" xmlns:xlink="http://www.w3.org/1999/xlink" width="1728" zoomAndPan="magnify" viewBox="0 0 1296 1727.999927" height="2304" preserveAspectRatio="xMidYMid meet" version="1.0"><defs><g/><clipPath id="5689ce870a"><path d="M 28 244 L 1267.894531 244 L 1267.894531 1483.894531 L 28 1483.894531 Z M 28 244 " clip-rule="nonzero"/></clipPath><clipPath id="89c0190213"><path d="M 707.949219 247.011719 L 727.695312 343.164062 C 765.914062 349.007812 803.375 359.027344 839.394531 373.085938 L 904.570312 299.699219 C 941.039062 316.269531 975.816406 336.355469 1008.414062 359.636719 L 977.445312 452.789062 C 1007.617188 476.960938 1035.039062 504.371094 1059.214844 534.554688 L 1152.347656 503.574219 C 1175.644531 536.171875 1195.722656 570.953125 1212.304688 607.421875 L 1138.914062 672.597656 C 1152.960938 708.621094 1162.996094 746.078125 1168.84375 784.289062 L 1264.988281 804.046875 C 1268.863281 843.921875 1268.863281 884.078125 1264.988281 923.953125 L 1168.84375 943.6875 C 1162.996094 981.921875 1152.960938 1019.378906 1138.914062 1055.402344 L 1212.304688 1120.578125 C 1195.722656 1157.046875 1175.644531 1191.804688 1152.347656 1224.402344 L 1059.214844 1193.445312 C 1035.039062 1223.605469 1007.617188 1251.039062 977.445312 1275.214844 L 1008.414062 1368.339844 C 975.816406 1391.644531 941.039062 1411.707031 904.570312 1428.300781 L 839.394531 1354.914062 C 803.375 1368.949219 765.914062 1378.992188 727.695312 1384.835938 L 707.949219 1480.988281 C 668.074219 1484.863281 627.917969 1484.863281 588.042969 1480.988281 L 568.292969 1384.835938 C 530.074219 1378.992188 492.617188 1368.949219 456.59375 1354.914062 L 391.40625 1428.300781 C 354.957031 1411.707031 320.175781 1391.644531 287.578125 1368.339844 L 318.558594 1275.214844 C 288.375 1251.039062 260.941406 1223.605469 236.765625 1193.445312 L 143.640625 1224.402344 C 120.359375 1191.804688 100.269531 1157.046875 83.675781 1120.578125 L 157.0625 1055.402344 C 143.03125 1019.378906 132.984375 981.921875 127.140625 943.6875 L 31.011719 923.953125 C 27.136719 884.078125 27.136719 843.921875 31.011719 804.046875 L 127.140625 784.289062 C 132.984375 746.078125 143.03125 708.621094 157.0625 672.597656 L 83.675781 607.421875 C 100.269531 570.953125 120.359375 536.171875 143.640625 503.574219 L 236.765625 534.554688 C 260.941406 504.371094 288.375 476.960938 318.558594 452.789062 L 287.578125 359.636719 C 320.175781 336.355469 354.957031 316.269531 391.40625 299.699219 L 456.59375 373.085938 C 492.617188 359.027344 530.074219 349.007812 568.292969 343.164062 L 588.042969 247.011719 C 627.917969 243.136719 668.074219 243.136719 707.949219 247.011719 Z M 647.996094 476.585938 C 434.167969 476.585938 260.585938 650.1875 260.585938 863.988281 C 260.585938 1077.8125 434.167969 1251.414062 647.996094 1251.414062 C 861.8125 1251.414062 1035.40625 1077.8125 1035.40625 863.988281 C 1035.40625 650.1875 861.8125 476.585938 647.996094 476.585938 Z M 647.996094 476.585938 " clip-rule="nonzero"/></clipPath><clipPath id="778fbb0490"><path d="M 0.078125 0.078125 L 1239.894531 0.078125 L 1239.894531 1239.894531 L 0.078125 1239.894531 Z M 0.078125 0.078125 " clip-rule="nonzero"/></clipPath><clipPath id="1e62c8323e"><path d="M 679.949219 3.011719 L 699.695312 99.164062 C 737.914062 105.007812 775.375 115.027344 811.394531 129.085938 L 876.570312 55.699219 C 913.039062 72.269531 947.816406 92.355469 980.414062 115.636719 L 949.445312 208.789062 C 979.617188 232.960938 1007.039062 260.371094 1031.214844 290.554688 L 1124.347656 259.574219 C 1147.644531 292.171875 1167.722656 326.953125 1184.304688 363.421875 L 1110.914062 428.597656 C 1124.960938 464.621094 1134.996094 502.078125 1140.84375 540.289062 L 1236.988281 560.046875 C 1240.863281 599.921875 1240.863281 640.078125 1236.988281 679.953125 L 1140.84375 699.6875 C 1134.996094 737.921875 1124.960938 775.378906 1110.914062 811.402344 L 1184.304688 876.578125 C 1167.722656 913.046875 1147.644531 947.804688 1124.347656 980.402344 L 1031.214844 949.445312 C 1007.039062 979.605469 979.617188 1007.039062 949.445312 1031.214844 L 980.414062 1124.339844 C 947.816406 1147.644531 913.039062 1167.707031 876.570312 1184.300781 L 811.394531 1110.914062 C 775.375 1124.949219 737.914062 1134.992188 699.695312 1140.835938 L 679.949219 1236.988281 C 640.074219 1240.863281 599.917969 1240.863281 560.042969 1236.988281 L 540.292969 1140.835938 C 502.074219 1134.992188 464.617188 1124.949219 428.59375 1110.914062 L 363.40625 1184.300781 C 326.957031 1167.707031 292.175781 1147.644531 259.578125 1124.339844 L 290.558594 1031.214844 C 260.375 1007.039062 232.941406 979.605469 208.765625 949.445312 L 115.640625 980.402344 C 92.359375 947.804688 72.269531 913.046875 55.675781 876.578125 L 129.0625 811.402344 C 115.03125 775.378906 104.984375 737.921875 99.140625 699.6875 L 3.011719 679.953125 C -0.863281 640.078125 -0.863281 599.921875 3.011719 560.046875 L 99.140625 540.289062 C 104.984375 502.078125 115.03125 464.621094 129.0625 428.597656 L 55.675781 363.421875 C 72.269531 326.953125 92.359375 292.171875 115.640625 259.574219 L 208.765625 290.554688 C 232.941406 260.371094 260.375 232.960938 290.558594 208.789062 L 259.578125 115.636719 C 292.175781 92.355469 326.957031 72.269531 363.40625 55.699219 L 428.59375 129.085938 C 464.617188 115.027344 502.074219 105.007812 540.292969 99.164062 L 560.042969 3.011719 C 599.917969 -0.863281 640.074219 -0.863281 679.949219 3.011719 Z M 619.996094 232.585938 C 406.167969 232.585938 232.585938 406.1875 232.585938 619.988281 C 232.585938 833.8125 406.167969 1007.414062 619.996094 1007.414062 C 833.8125 1007.414062 1007.40625 833.8125 1007.40625 619.988281 C 1007.40625 406.1875 833.8125 232.585938 619.996094 232.585938 Z M 619.996094 232.585938 " clip-rule="nonzero"/></clipPath><clipPath id="c2f836adc1"><rect x="0" width="1240" y="0" height="1240"/></clipPath><clipPath id="46cfc33b12"><path d="M 28.105469 244.105469 L 1267.855469 244.105469 L 1267.855469 1483.855469 L 28.105469 1483.855469 Z M 28.105469 244.105469 " clip-rule="nonzero"/></clipPath><clipPath id="371f98e36c"><path d="M 707.945312 247.011719 L 727.691406 343.164062 C 765.914062 349.007812 803.375 359.027344 839.394531 373.085938 L 904.566406 299.699219 C 941.035156 316.265625 975.816406 336.355469 1008.410156 359.636719 L 977.441406 452.785156 C 1007.613281 476.957031 1035.035156 504.371094 1059.210938 534.554688 L 1152.34375 503.574219 C 1175.640625 536.171875 1195.71875 570.953125 1212.300781 607.421875 L 1138.914062 672.597656 C 1152.957031 708.621094 1162.996094 746.078125 1168.84375 784.285156 L 1264.984375 804.046875 C 1268.859375 843.921875 1268.859375 884.078125 1264.984375 923.949219 L 1168.84375 943.6875 C 1162.996094 981.917969 1152.957031 1019.375 1138.914062 1055.398438 L 1212.300781 1120.574219 C 1195.71875 1157.042969 1175.640625 1191.800781 1152.34375 1224.398438 L 1059.210938 1193.445312 C 1035.035156 1223.601562 1007.613281 1251.039062 977.441406 1275.210938 L 1008.410156 1368.335938 C 975.816406 1391.640625 941.035156 1411.707031 904.566406 1428.300781 L 839.394531 1354.910156 C 803.375 1368.945312 765.914062 1378.988281 727.691406 1384.835938 L 707.945312 1480.984375 C 668.070312 1484.859375 627.914062 1484.859375 588.039062 1480.984375 L 568.292969 1384.835938 C 530.070312 1378.988281 492.613281 1368.945312 456.59375 1354.910156 L 391.40625 1428.300781 C 354.957031 1411.707031 320.175781 1391.640625 287.578125 1368.335938 L 318.558594 1275.210938 C 288.375 1251.039062 260.941406 1223.601562 236.765625 1193.445312 L 143.640625 1224.398438 C 120.359375 1191.800781 100.269531 1157.042969 83.675781 1120.574219 L 157.0625 1055.398438 C 143.03125 1019.375 132.984375 981.917969 127.140625 943.6875 L 31.011719 923.949219 C 27.136719 884.078125 27.136719 843.921875 31.011719 804.046875 L 127.140625 784.285156 C 132.984375 746.078125 143.03125 708.621094 157.0625 672.597656 L 83.675781 607.421875 C 100.269531 570.953125 120.359375 536.171875 143.640625 503.574219 L 236.765625 534.554688 C 260.941406 504.371094 288.375 476.957031 318.558594 452.785156 L 287.578125 359.636719 C 320.175781 336.355469 354.957031 316.265625 391.40625 299.699219 L 456.59375 373.085938 C 492.613281 359.027344 530.070312 349.007812 568.292969 343.164062 L 588.039062 247.011719 C 627.914062 243.136719 668.070312 243.136719 707.945312 247.011719 Z M 647.992188 476.585938 C 434.167969 476.585938 260.585938 650.183594 260.585938 863.988281 C 260.585938 1077.8125 434.167969 1251.410156 647.992188 1251.410156 C 861.8125 1251.410156 1035.40625 1077.8125 1035.40625 863.988281 C 1035.40625 650.183594 861.8125 476.585938 647.992188 476.585938 Z M 647.992188 476.585938 " clip-rule="nonzero"/></clipPath><clipPath id="1ccc6f048b"><path d="M 380.425781 734.425781 L 937.675781 734.425781 L 937.675781 1165.675781 L 380.425781 1165.675781 Z M 380.425781 734.425781 " clip-rule="nonzero"/></clipPath></defs><g clip-path="url(#5689ce870a)"><g clip-path="url(#89c0190213)"><g transform="matrix(1, 0, 0, 1, 28, 244)"><g clip-path="url(#c2f836adc1)"><g clip-path="url(#778fbb0490)"><g clip-path="url(#1e62c8323e)"><path fill="#118d3d" d="M 0.105469 0.105469 L 1239.894531 0.105469 L 1239.894531 1239.894531 L 0.105469 1239.894531 Z M 0.105469 0.105469 " fill-opacity="1" fill-rule="nonzero"/></g></g></g></g></g></g><g clip-path="url(#46cfc33b12)"><g clip-path="url(#371f98e36c)"><path stroke-linecap="butt" transform="matrix(0.75, 0, 0, 0.75, 28.105854, 244.105803)" fill="none" stroke-linejoin="miter" d="M 906.452688 3.874554 L 932.780815 132.07769 C 983.744361 139.869357 1033.692282 153.228733 1081.718327 171.973527 L 1168.614168 74.12456 C 1217.239172 96.213103 1263.614176 122.999564 1307.072513 154.041233 L 1265.780843 278.23916 C 1306.010013 310.46833 1342.572516 347.020416 1374.806894 387.265211 L 1498.983988 345.957916 C 1530.04649 389.421461 1556.817326 435.796465 1578.926703 484.421469 L 1481.077736 571.322518 C 1499.801696 619.353773 1513.187114 669.296485 1520.983989 720.239198 L 1649.1715 746.588158 C 1654.338167 799.754829 1654.338167 853.296501 1649.1715 906.457963 L 1520.983989 932.775674 C 1513.187114 983.749636 1499.801696 1033.692349 1481.077736 1081.723603 L 1578.926703 1168.624652 C 1556.817326 1217.249656 1530.04649 1263.59341 1498.983988 1307.056955 L 1374.806894 1265.786119 C 1342.572516 1305.994455 1306.010013 1342.577792 1265.780843 1374.806961 L 1307.072513 1498.973638 C 1263.614176 1530.046557 1217.239172 1556.801768 1168.614168 1578.92677 L 1081.718327 1481.072595 C 1033.692282 1499.786138 983.744361 1513.176764 932.780815 1520.97364 L 906.452688 1649.171567 C 853.286017 1654.338235 799.749554 1654.338235 746.577674 1649.171567 L 720.249547 1520.97364 C 669.286001 1513.176764 619.343289 1499.786138 571.317243 1481.072595 L 484.400569 1578.92677 C 435.801606 1556.801768 389.426602 1530.046557 345.963057 1498.973638 L 387.270352 1374.806961 C 347.025557 1342.577792 310.447429 1305.994455 278.213051 1265.786119 L 154.046374 1307.056955 C 123.004705 1263.59341 96.218244 1217.249656 74.093243 1168.624652 L 171.942209 1081.723603 C 153.233874 1033.692349 139.83804 983.749636 132.046372 932.775674 L 3.874487 906.457963 C -1.29218 853.296501 -1.29218 799.754829 3.874487 746.588158 L 132.046372 720.239198 C 139.83804 669.296485 153.233874 619.353773 171.942209 571.322518 L 74.093243 484.421469 C 96.218244 435.796465 123.004705 389.421461 154.046374 345.957916 L 278.213051 387.265211 C 310.447429 347.020416 347.025557 310.46833 387.270352 278.23916 L 345.963057 154.041233 C 389.426602 122.999564 435.801606 96.213103 484.400569 74.12456 L 571.317243 171.973527 C 619.343289 153.228733 669.286001 139.869357 720.249547 132.07769 L 746.577674 3.874554 C 799.749554 -1.292113 853.286017 -1.292113 906.452688 3.874554 Z M 826.515181 309.973538 C 541.416199 309.973538 309.973471 541.437099 309.973471 826.51004 C 309.973471 1111.609022 541.416199 1343.072583 826.515181 1343.072583 C 1111.608955 1343.072583 1343.067308 1111.609022 1343.067308 826.51004 C 1343.067308 541.437099 1111.608955 309.973538 826.515181 309.973538 Z M 826.515181 309.973538 " stroke="#118d3d" stroke-width="96" stroke-opacity="1" stroke-miterlimit="4"/></g></g><g clip-path="url(#1ccc6f048b)"><path fill="#000000" d="M 551.949219 1044.367188 C 534.367188 1043.738281 519.109375 1039.738281 506.667969 1032.554688 C 495.144531 1025.90625 486.117188 1016.65625 479.945312 1004.953125 C 451.875 1010.484375 428.363281 1004.3125 411.253906 991.683594 C 400.65625 983.859375 392.570312 973.554688 387.40625 962 C 382.238281 950.429688 379.996094 937.648438 381.085938 924.886719 C 382.917969 903.570312 393.902344 882.273438 415.90625 866.726562 C 421.863281 841.398438 434.964844 820.667969 452.03125 805.859375 C 470.023438 790.25 492.429688 781.222656 515.5625 780.300781 C 531.472656 763.707031 548.519531 752.707031 566.703125 747.304688 C 585.109375 741.832031 604.433594 742.125 624.667969 748.179688 C 669.117188 728.578125 710.464844 729.992188 748.714844 752.417969 C 767.945312 751.707031 784.796875 754.65625 799.257812 761.269531 C 813.628906 767.839844 825.472656 777.925781 834.789062 791.523438 C 859.367188 798.3125 878.183594 809.332031 891.234375 824.578125 C 904.363281 839.921875 911.421875 859.25 912.402344 882.550781 C 920.566406 891.625 926.792969 902.179688 930.972656 913.441406 C 937.199219 930.210938 938.890625 948.574219 935.714844 965.980469 C 932.496094 983.617188 924.320312 1000.296875 910.855469 1013.441406 C 903.488281 1020.632812 894.546875 1026.746094 883.980469 1031.347656 C 883.03125 1036.042969 881.609375 1040.640625 879.757812 1045.113281 C 871.691406 1064.609375 855.488281 1081.285156 835.101562 1092.253906 C 814.9375 1103.097656 790.574219 1108.453125 765.90625 1105.488281 C 763.316406 1105.175781 760.71875 1104.773438 758.121094 1104.273438 C 761.132812 1110.109375 764.015625 1115.625 766.765625 1120.816406 C 767.886719 1122.925781 769.605469 1126.117188 771.910156 1130.367188 C 774.3125 1134.800781 775.886719 1137.683594 776.578125 1138.921875 C 778.316406 1142.046875 778.0625 1145.746094 776.230469 1148.546875 L 776.25 1148.558594 C 766.488281 1163.457031 754.554688 1168.679688 740.449219 1164.226562 C 728.882812 1160.570312 716.453125 1149.359375 703.164062 1130.59375 L 703.019531 1130.386719 L 702.980469 1130.414062 C 691.3125 1112.910156 679.578125 1097.816406 667.777344 1085.144531 C 657.136719 1073.714844 646.425781 1064.203125 635.65625 1056.609375 C 616.050781 1060.984375 599.382812 1062.203125 585.648438 1060.265625 C 571.425781 1058.257812 560.191406 1052.957031 551.949219 1044.367188 Z M 632.175781 787.800781 C 634.894531 783.425781 640.648438 782.082031 645.023438 784.804688 C 649.394531 787.527344 650.734375 793.28125 648.015625 797.65625 C 634.125 819.949219 636.707031 840.019531 646.289062 853.808594 C 647.105469 854.355469 647.847656 855.039062 648.480469 855.859375 C 649.070312 856.621094 649.519531 857.445312 649.839844 858.304688 C 654.375 863.378906 659.886719 867.355469 665.726562 869.9375 C 672.828125 873.082031 680.261719 874.109375 686.738281 872.445312 C 695.867188 870.101562 703.550781 861.886719 706.121094 845.921875 C 706.925781 840.84375 711.699219 837.378906 716.777344 838.183594 C 721.859375 838.988281 725.324219 843.765625 724.515625 848.84375 C 720.566406 873.378906 707.335938 886.371094 691.335938 890.480469 C 680.65625 893.222656 668.960938 891.78125 658.207031 887.023438 C 651.394531 884.007812 644.894531 879.632812 639.242188 874.136719 C 625.605469 882.40625 611.261719 885.304688 598.316406 883.769531 C 589.648438 899.128906 574.601562 910.859375 557.574219 917.714844 C 544.839844 922.839844 530.90625 925.273438 517.6875 924.46875 C 515.671875 924.347656 513.671875 924.148438 511.691406 923.875 C 502.925781 932.265625 497.015625 941.65625 493.960938 952.039062 C 492.542969 956.871094 491.722656 961.957031 491.507812 967.304688 C 491.507812 967.460938 491.5 967.617188 491.492188 967.769531 C 491.242188 975.089844 492.121094 982.894531 494.121094 991.175781 C 498.585938 1002.214844 506.003906 1010.683594 515.9375 1016.417969 C 526.417969 1022.46875 539.800781 1025.664062 555.613281 1025.828125 C 568.984375 1024.285156 580.019531 1021.40625 588.707031 1017.183594 C 596.800781 1013.253906 602.800781 1008.148438 606.707031 1001.875 C 609.425781 997.5 615.179688 996.160156 619.550781 998.878906 C 623.925781 1001.601562 625.265625 1007.355469 622.546875 1011.730469 C 616.75 1021.042969 608.171875 1028.460938 596.8125 1033.976562 C 591.851562 1036.386719 586.351562 1038.425781 580.316406 1040.101562 C 582.761719 1040.832031 585.390625 1041.394531 588.203125 1041.792969 C 600.539062 1043.53125 616.128906 1042.15625 634.972656 1037.667969 L 635.074219 1037.636719 C 653.101562 1032.652344 670.542969 1027.785156 687.429688 1023.027344 C 704.199219 1018.304688 717.867188 1014.410156 728.40625 1011.355469 C 728.699219 1011.269531 728.992188 1011.199219 729.285156 1011.144531 L 729.285156 1011.136719 C 741.304688 1008.839844 751.167969 1006.050781 758.875 1002.761719 C 759.011719 1002.699219 759.144531 1002.640625 759.28125 1002.585938 C 761.375 1001.679688 763.308594 1000.734375 765.074219 999.753906 C 771.984375 995.921875 776.0625 991.71875 777.304688 987.148438 C 778.65625 982.171875 783.789062 979.226562 788.765625 980.578125 C 793.746094 981.929688 796.6875 987.0625 795.335938 992.042969 C 793.539062 998.648438 789.628906 1004.496094 783.605469 1009.589844 C 796.71875 1014.246094 809.542969 1017.320312 822.070312 1018.8125 C 839.636719 1020.910156 856.636719 1019.871094 873.070312 1015.695312 C 883.011719 1011.898438 891.253906 1006.527344 897.859375 1000.082031 C 908.425781 989.769531 914.847656 976.625 917.390625 962.695312 C 919.976562 948.539062 918.597656 933.59375 913.527344 919.941406 C 909.890625 910.152344 904.351562 901.035156 897.011719 893.367188 C 889.738281 887.714844 882.785156 883.929688 876.152344 882.007812 C 869.820312 880.171875 863.691406 880.015625 857.769531 881.539062 C 852.792969 882.808594 847.726562 879.800781 846.457031 874.824219 C 845.183594 869.84375 848.191406 864.773438 853.171875 863.503906 C 862.371094 861.136719 871.761719 861.34375 881.335938 864.117188 C 884.886719 865.148438 888.449219 866.527344 892.019531 868.253906 C 889.519531 855.941406 884.539062 845.425781 877.070312 836.699219 C 866.089844 823.867188 849.472656 814.582031 827.226562 808.839844 C 814.707031 807.515625 803.640625 808.402344 794.039062 811.496094 C 787.796875 813.511719 782.109375 816.488281 776.980469 820.429688 C 781.449219 825.078125 785.351562 830.199219 788.582031 835.636719 C 794.792969 832.613281 801.65625 830.722656 809.175781 829.972656 C 820.101562 828.882812 832.371094 830.234375 845.980469 834.019531 C 850.941406 835.390625 853.847656 840.523438 852.480469 845.480469 C 851.109375 850.441406 845.976562 853.351562 841.019531 851.980469 C 829.632812 848.8125 819.625 847.660156 811 848.519531 C 805.496094 849.066406 800.550781 850.457031 796.167969 852.683594 C 800.3125 866.238281 800.46875 880.652344 795.488281 894.035156 C 793.390625 899.664062 790.378906 905.09375 786.371094 910.171875 C 783.1875 914.203125 777.335938 914.890625 773.304688 911.707031 C 769.273438 908.519531 768.585938 902.667969 771.773438 898.636719 C 774.527344 895.144531 776.597656 891.410156 778.039062 887.535156 C 781.78125 877.480469 781.28125 866.328125 777.566406 855.820312 C 774.175781 846.230469 768.152344 837.25 760.242188 830.109375 C 758.792969 829.742188 757.40625 829.019531 756.226562 827.933594 C 755.386719 827.15625 754.71875 826.261719 754.230469 825.300781 C 749.996094 822.316406 745.355469 819.832031 740.402344 817.984375 C 735.585938 816.191406 733.136719 810.828125 734.929688 806.011719 C 736.722656 801.191406 742.085938 798.742188 746.902344 800.535156 C 752.359375 802.566406 757.523438 805.199219 762.324219 808.3125 C 769.960938 801.742188 778.632812 796.886719 788.347656 793.757812 C 794.800781 791.675781 801.675781 790.375 808.964844 789.851562 C 803.785156 785.039062 797.96875 781.15625 791.519531 778.207031 C 779.226562 772.589844 764.441406 770.238281 747.164062 771.15625 L 746.035156 771.308594 L 746.035156 771.3125 C 722.277344 774.605469 705.246094 780.78125 694.945312 789.847656 C 685.742188 797.949219 682.035156 808.859375 683.832031 822.574219 L 683.835938 822.574219 L 683.898438 823.035156 C 684.585938 828.136719 681.007812 832.828125 675.90625 833.511719 C 670.804688 834.195312 666.117188 830.617188 665.429688 825.515625 L 665.367188 825.058594 L 665.375 825.054688 L 665.367188 825.019531 C 662.691406 804.695312 668.441406 788.296875 682.609375 775.828125 C 691.042969 768.40625 702.472656 762.582031 716.894531 758.363281 C 689.644531 749.492188 660.527344 752.183594 629.535156 766.441406 L 629.355469 766.535156 C 623.417969 769.96875 618.683594 773.949219 615.160156 778.46875 C 611.671875 782.941406 609.300781 788.0625 608.058594 793.820312 C 606.992188 798.859375 602.039062 802.082031 597 801.011719 C 591.960938 799.945312 588.742188 794.992188 589.8125 789.953125 C 591.652344 781.421875 595.210938 773.773438 600.488281 767.003906 C 601.617188 765.554688 602.824219 764.148438 604.105469 762.792969 C 592.9375 761.34375 582.222656 762.140625 571.957031 765.191406 C 556.257812 769.859375 541.335938 779.820312 527.203125 795.070312 C 517.53125 811.183594 513.695312 825.152344 515.699219 836.96875 C 517.652344 848.476562 525.464844 858.542969 539.132812 867.167969 C 543.488281 869.910156 544.792969 875.664062 542.054688 880.015625 C 539.3125 884.371094 533.558594 885.679688 529.207031 882.9375 C 510.824219 871.339844 500.1875 857.039062 497.304688 840.035156 C 495.246094 827.890625 497.292969 814.695312 503.453125 800.457031 C 489.1875 803.351562 475.644531 810.039062 464.222656 819.949219 C 449.597656 832.636719 438.449219 850.609375 433.640625 872.683594 C 434.824219 881.582031 437.410156 888.742188 441.398438 894.15625 C 445.355469 899.53125 450.90625 903.351562 458.046875 905.621094 C 462.964844 907.171875 465.691406 912.417969 464.140625 917.339844 C 462.589844 922.257812 457.34375 924.988281 452.425781 923.4375 C 441.441406 919.949219 432.75 913.863281 426.359375 905.183594 C 422.890625 900.46875 420.167969 895.046875 418.1875 888.917969 C 406.730469 899.929688 400.835938 913.214844 399.703125 926.421875 C 398.871094 936.109375 400.542969 945.746094 404.414062 954.40625 C 408.292969 963.082031 414.375 970.828125 422.351562 976.714844 C 435.066406 986.101562 452.75 990.761719 474.25 987.035156 C 473.738281 983.976562 473.359375 980.960938 473.121094 977.992188 C 461.710938 979.019531 451.71875 977.488281 443.152344 973.402344 C 431.613281 967.902344 423.074219 958.066406 417.542969 943.898438 C 415.671875 939.101562 418.039062 933.691406 422.835938 931.816406 C 427.636719 929.941406 433.042969 932.308594 434.917969 937.109375 C 438.652344 946.671875 444.074219 953.148438 451.179688 956.539062 C 457.15625 959.386719 464.59375 960.273438 473.488281 959.191406 C 474.03125 954.945312 474.894531 950.808594 476.078125 946.78125 C 479.15625 936.316406 484.359375 926.71875 491.691406 917.984375 C 487.742188 916.089844 484.011719 913.777344 480.574219 911.015625 C 469.6875 902.28125 461.898438 889.332031 459.5 871.566406 C 458.816406 866.464844 462.394531 861.773438 467.492188 861.089844 C 472.59375 860.40625 477.285156 863.984375 477.96875 869.085938 C 479.664062 881.648438 484.9375 890.617188 492.253906 896.488281 C 497.1875 900.445312 503.132812 903.09375 509.613281 904.5625 C 510.371094 904.625 511.125 904.777344 511.851562 905.019531 C 514.109375 905.433594 516.425781 905.707031 518.78125 905.851562 C 529.273438 906.488281 540.402344 904.53125 550.640625 900.410156 C 562.558594 895.609375 573.144531 887.929688 579.871094 878.097656 C 579.5625 877.9375 579.257812 877.773438 578.957031 877.605469 C 573.121094 874.382812 567.976562 870.023438 563.828125 864.667969 C 555.691406 854.171875 551.503906 840.019531 553.578125 823.308594 C 554.203125 818.1875 558.859375 814.542969 563.980469 815.167969 C 569.101562 815.792969 572.742188 820.453125 572.121094 825.574219 C 570.691406 837.082031 573.34375 846.53125 578.570312 853.277344 C 581.109375 856.554688 584.292969 859.238281 587.933594 861.25 C 591.628906 863.292969 595.8125 864.632812 600.285156 865.1875 C 608.828125 866.25 618.382812 864.453125 627.753906 859.25 C 617.074219 840.34375 615.226562 815 632.175781 787.800781 Z M 658.335938 1050.527344 C 666.113281 1056.957031 673.8125 1064.261719 681.429688 1072.441406 C 694.027344 1085.972656 706.394531 1101.839844 718.53125 1120.042969 L 718.496094 1120.070312 C 729.25 1135.21875 738.445312 1144 746.066406 1146.410156 C 749.972656 1147.640625 753.71875 1146.371094 757.308594 1142.597656 C 756.53125 1141.195312 755.925781 1140.089844 755.484375 1139.273438 C 754.484375 1137.433594 752.75 1134.179688 750.269531 1129.503906 C 747.546875 1124.371094 744.609375 1118.746094 741.460938 1112.640625 C 738.386719 1106.679688 735.140625 1100.316406 731.71875 1093.542969 C 719.339844 1085.667969 709.445312 1076.960938 702.042969 1067.425781 C 695.910156 1059.527344 691.472656 1051.066406 688.722656 1042.042969 C 679.769531 1044.558594 669.640625 1047.386719 658.335938 1050.527344 Z M 747.464844 1082.058594 C 754.265625 1084.511719 761.183594 1086.113281 768.097656 1086.941406 C 788.84375 1089.4375 809.324219 1084.9375 826.265625 1075.824219 C 842.984375 1066.832031 856.148438 1053.457031 862.53125 1038.03125 C 862.703125 1037.613281 862.871094 1037.195312 863.03125 1036.773438 C 848.984375 1038.917969 834.601562 1039.113281 819.878906 1037.359375 C 801.316406 1035.144531 782.222656 1029.804688 762.605469 1021.335938 C 754.347656 1024.507812 744.507812 1027.195312 733.082031 1029.390625 C 724.558594 1031.863281 715.753906 1034.386719 706.667969 1036.972656 C 708.769531 1043.652344 712.144531 1049.984375 716.785156 1055.960938 C 723.523438 1064.636719 732.890625 1072.578125 744.890625 1079.78125 C 745.914062 1080.394531 746.773438 1081.167969 747.464844 1082.058594 Z M 523.5625 973.347656 C 536.996094 982.570312 550.125 986.59375 562.324219 986.804688 C 573.59375 986.996094 583.917969 983.914062 592.890625 978.644531 C 595.332031 977.207031 597.671875 975.609375 599.902344 973.871094 C 601.972656 977.046875 604.289062 979.949219 606.816406 982.574219 C 615.765625 991.875 627.3125 997.726562 639.824219 1000.007812 C 652.058594 1002.242188 665.21875 1001.011719 677.710938 996.203125 C 687.0625 992.605469 696.019531 987.03125 703.898438 979.441406 C 707.605469 975.875 707.722656 969.972656 704.152344 966.265625 C 700.585938 962.554688 694.6875 962.441406 690.976562 966.007812 C 684.898438 971.863281 678.09375 976.121094 671.066406 978.828125 C 661.792969 982.398438 652.082031 983.320312 643.109375 981.683594 C 634.414062 980.097656 626.414062 976.054688 620.246094 969.648438 C 617.574219 966.875 615.242188 963.664062 613.335938 960.019531 C 613.851562 959.316406 614.359375 958.609375 614.851562 957.890625 C 622.792969 946.320312 627.433594 932.523438 627.660156 919.390625 C 627.738281 914.25 623.636719 910.015625 618.496094 909.9375 C 613.359375 909.855469 609.125 913.960938 609.042969 919.101562 C 608.882812 928.5625 605.40625 938.699219 599.445312 947.378906 C 595.222656 953.535156 589.792969 958.863281 583.472656 962.578125 C 577.3125 966.199219 570.261719 968.316406 562.617188 968.183594 C 553.945312 968.035156 544.320312 964.976562 534.074219 957.941406 C 529.824219 955.039062 524.019531 956.132812 521.117188 960.386719 C 518.214844 964.640625 519.3125 970.445312 523.5625 973.347656 Z M 663.890625 942.65625 C 685.714844 945.40625 703.421875 943.8125 717.007812 937.875 C 732.910156 955.640625 758.433594 963.136719 783.71875 962.804688 C 794.890625 962.660156 806.054688 961 816.3125 958.042969 C 819.722656 963.640625 823.75 968.640625 828.152344 972.835938 C 834.71875 979.089844 842.226562 983.65625 849.929688 985.902344 C 858.285156 988.339844 866.8125 988.066406 874.695312 984.367188 C 878.519531 982.574219 882.101562 980.015625 885.332031 976.621094 C 888.882812 972.890625 888.734375 966.988281 885.003906 963.441406 C 881.277344 959.894531 875.375 960.039062 871.828125 963.769531 C 870.214844 965.464844 868.527344 966.695312 866.8125 967.5 C 863.28125 969.15625 859.234375 969.214844 855.113281 968.011719 C 850.339844 966.621094 845.464844 963.582031 841 959.328125 C 838.488281 956.9375 836.140625 954.1875 834.035156 951.15625 C 842.796875 946.71875 850.292969 941.101562 855.730469 934.480469 C 864.09375 924.296875 867.667969 912.039062 863.984375 898.28125 C 862.65625 893.304688 857.539062 890.34375 852.5625 891.675781 C 847.582031 893.003906 844.625 898.121094 845.953125 903.101562 C 847.917969 910.4375 845.933594 917.070312 841.347656 922.652344 C 836.1875 928.933594 827.890625 934.132812 817.957031 937.875 C 807.53125 941.800781 795.523438 944.03125 783.5 944.1875 C 764.121094 944.4375 744.875 939.382812 732.742188 927.429688 C 739.898438 920.445312 744.765625 911.324219 747.34375 900.074219 C 748.492188 895.054688 745.355469 890.050781 740.335938 888.902344 C 735.316406 887.753906 730.316406 890.890625 729.167969 895.910156 C 726.519531 907.46875 720.441406 915.550781 710.933594 920.152344 C 700.371094 925.261719 685.464844 926.605469 666.226562 924.183594 C 661.125 923.539062 656.46875 927.148438 655.824219 932.25 C 655.175781 937.351562 658.789062 942.011719 663.890625 942.65625 Z M 663.890625 942.65625 " fill-opacity="1" fill-rule="evenodd"/></g><path fill="#f7b628" d="M 804.117188 566.585938 C 795.730469 566.585938 788.9375 572.601562 788.9375 580.019531 C 788.9375 585.648438 792.855469 590.464844 798.402344 592.464844 C 786.296875 613.5 747.851562 648.09375 715.273438 642.132812 C 692.230469 637.914062 670.1875 614.097656 649.878906 552.242188 C 660.171875 551.402344 668.238281 543.738281 668.238281 534.410156 C 668.238281 524.519531 659.179688 516.496094 647.996094 516.496094 C 636.808594 516.496094 627.753906 524.511719 627.753906 534.410156 C 627.753906 543.742188 635.8125 551.402344 646.113281 552.242188 C 625.804688 614.097656 603.761719 637.914062 580.71875 642.132812 C 548.136719 648.097656 509.691406 613.5 497.589844 592.464844 C 503.136719 590.464844 507.054688 585.648438 507.054688 580.019531 C 507.054688 572.601562 500.257812 566.585938 491.875 566.585938 C 483.492188 566.585938 476.695312 572.601562 476.695312 580.019531 C 476.695312 587.433594 483.492188 593.449219 491.875 593.449219 C 492.863281 593.449219 493.824219 593.363281 494.761719 593.203125 C 507.003906 634.085938 515.234375 645.230469 530.660156 698.117188 L 765.332031 698.117188 C 780.753906 645.230469 788.988281 634.085938 801.234375 593.203125 C 802.171875 593.367188 803.132812 593.449219 804.117188 593.449219 C 812.503906 593.449219 819.296875 587.433594 819.296875 580.019531 C 819.296875 572.601562 812.503906 566.585938 804.117188 566.585938 Z M 804.117188 566.585938 " fill-opacity="1" fill-rule="nonzero"/><path fill="#f7b628" d="M 609.179688 615.289062 C 609.121094 615.367188 609.0625 615.445312 609.003906 615.523438 C 599.679688 627.652344 589.992188 634.488281 579.386719 636.429688 C 577.355469 636.800781 575.222656 636.984375 573.050781 636.984375 C 566.957031 636.984375 560.230469 635.480469 553.222656 632.605469 C 560.070312 618.773438 564.644531 597.984375 566.136719 567.691406 C 557.40625 568.832031 548.972656 563.925781 546.84375 556.183594 C 544.582031 547.980469 550.265625 539.710938 559.539062 537.714844 C 568.8125 535.714844 578.152344 540.742188 580.410156 548.949219 C 582.542969 556.6875 577.605469 564.480469 569.261719 567.019531 C 584.097656 589.855469 597.273438 605.375 609.175781 615.289062 Z M 609.179688 615.289062 " fill-opacity="1" fill-rule="nonzero"/><path fill="#f7b628" d="M 686.816406 615.289062 C 686.875 615.367188 686.9375 615.445312 686.996094 615.523438 C 696.316406 627.652344 706.003906 634.488281 716.609375 636.429688 C 718.644531 636.800781 720.773438 636.984375 722.945312 636.984375 C 729.039062 636.984375 735.765625 635.480469 742.773438 632.605469 C 735.925781 618.773438 731.351562 597.984375 729.859375 567.691406 C 738.589844 568.832031 747.023438 563.925781 749.15625 556.183594 C 751.414062 547.980469 745.730469 539.710938 736.460938 537.714844 C 727.1875 535.714844 717.847656 540.742188 715.585938 548.949219 C 713.453125 556.6875 718.390625 564.480469 726.734375 567.019531 C 711.902344 589.855469 698.722656 605.375 686.820312 615.289062 Z M 686.816406 615.289062 " fill-opacity="1" fill-rule="nonzero"/><path fill="#f7b628" d="M 530.660156 741.683594 C 530.660156 747.554688 536.042969 752.320312 542.679688 752.320312 L 753.3125 752.320312 C 759.949219 752.320312 765.328125 747.558594 765.328125 741.683594 L 765.328125 712.445312 L 530.660156 712.445312 Z M 530.660156 741.683594 " fill-opacity="1" fill-rule="nonzero"/><g fill="#f7b628" fill-opacity="1"><g transform="translate(638.822114, 1341.354062)"><g><path d="M 5.015625 13.53125 C 4.515625 13.53125 4.265625 13.28125 4.265625 12.78125 L 4.5625 -35.140625 C 4.5625 -35.640625 4.8125 -35.890625 5.3125 -35.890625 L 9.59375 -35.859375 C 10.09375 -35.859375 10.34375 -35.609375 10.34375 -35.109375 L 10.328125 -32.1875 L 10.40625 -32.1875 C 10.914062 -33.4375 11.695312 -34.46875 12.75 -35.28125 C 13.800781 -36.09375 15.304688 -36.492188 17.265625 -36.484375 C 21.210938 -36.460938 23.796875 -34.5 25.015625 -30.59375 C 25.160156 -30.09375 25.289062 -29.554688 25.40625 -28.984375 C 25.53125 -28.410156 25.628906 -27.671875 25.703125 -26.765625 C 25.773438 -25.867188 25.816406 -24.707031 25.828125 -23.28125 C 25.847656 -21.851562 25.847656 -20.039062 25.828125 -17.84375 C 25.816406 -15.644531 25.796875 -13.832031 25.765625 -12.40625 C 25.734375 -10.976562 25.675781 -9.800781 25.59375 -8.875 C 25.507812 -7.957031 25.398438 -7.207031 25.265625 -6.625 C 25.140625 -6.050781 25.003906 -5.515625 24.859375 -5.015625 C 23.585938 -1.128906 20.976562 0.800781 17.03125 0.78125 C 15.070312 0.769531 13.570312 0.335938 12.53125 -0.515625 C 11.488281 -1.378906 10.71875 -2.410156 10.21875 -3.609375 L 10.140625 -3.609375 L 10.046875 12.8125 C 10.046875 13.3125 9.796875 13.5625 9.296875 13.5625 Z M 15.109375 -4.625 C 17.304688 -4.613281 18.757812 -5.65625 19.46875 -7.75 C 19.570312 -8.050781 19.660156 -8.390625 19.734375 -8.765625 C 19.816406 -9.140625 19.875 -9.660156 19.90625 -10.328125 C 19.9375 -11.003906 19.96875 -11.941406 20 -13.140625 C 20.03125 -14.347656 20.050781 -15.925781 20.0625 -17.875 C 20.070312 -19.820312 20.066406 -21.382812 20.046875 -22.5625 C 20.035156 -23.738281 20.019531 -24.660156 20 -25.328125 C 19.976562 -26.003906 19.929688 -26.53125 19.859375 -26.90625 C 19.785156 -27.28125 19.695312 -27.617188 19.59375 -27.921875 C 18.914062 -30.035156 17.476562 -31.097656 15.28125 -31.109375 C 14.125 -31.117188 13.179688 -30.847656 12.453125 -30.296875 C 11.722656 -29.753906 11.179688 -28.984375 10.828125 -27.984375 C 10.722656 -27.679688 10.632812 -27.34375 10.5625 -26.96875 C 10.488281 -26.59375 10.4375 -26.066406 10.40625 -25.390625 C 10.375 -24.722656 10.335938 -23.800781 10.296875 -22.625 C 10.265625 -21.445312 10.242188 -19.882812 10.234375 -17.9375 C 10.222656 -15.988281 10.226562 -14.410156 10.25 -13.203125 C 10.269531 -12.003906 10.289062 -11.066406 10.3125 -10.390625 C 10.332031 -9.722656 10.375 -9.203125 10.4375 -8.828125 C 10.507812 -8.453125 10.597656 -8.113281 10.703125 -7.8125 C 11.046875 -6.8125 11.578125 -6.03125 12.296875 -5.46875 C 13.015625 -4.914062 13.953125 -4.632812 15.109375 -4.625 Z M 15.109375 -4.625 "/></g></g></g><g fill="#f7b628" fill-opacity="1"><g transform="translate(669.245346, 1341.485953)"><g><path d="M 14.046875 -0.171875 C 11.554688 -0.015625 9.421875 -0.472656 7.640625 -1.546875 C 5.867188 -2.617188 4.570312 -4.253906 3.75 -6.453125 C 3.570312 -6.941406 3.414062 -7.445312 3.28125 -7.96875 C 3.144531 -8.488281 3.03125 -9.160156 2.9375 -9.984375 C 2.84375 -10.804688 2.742188 -11.863281 2.640625 -13.15625 C 2.535156 -14.445312 2.421875 -16.117188 2.296875 -18.171875 C 2.171875 -20.222656 2.082031 -21.894531 2.03125 -23.1875 C 1.988281 -24.476562 1.960938 -25.539062 1.953125 -26.375 C 1.953125 -27.207031 1.988281 -27.890625 2.0625 -28.421875 C 2.132812 -28.953125 2.226562 -29.472656 2.34375 -29.984375 C 2.90625 -32.210938 4 -33.960938 5.625 -35.234375 C 7.257812 -36.503906 9.320312 -37.21875 11.8125 -37.375 C 14.3125 -37.519531 16.441406 -37.054688 18.203125 -35.984375 C 19.972656 -34.910156 21.269531 -33.300781 22.09375 -31.15625 C 22.28125 -30.664062 22.4375 -30.160156 22.5625 -29.640625 C 22.695312 -29.128906 22.8125 -28.457031 22.90625 -27.625 C 23.007812 -26.800781 23.109375 -25.742188 23.203125 -24.453125 C 23.304688 -23.160156 23.421875 -21.488281 23.546875 -19.4375 C 23.671875 -17.382812 23.757812 -15.710938 23.8125 -14.421875 C 23.863281 -13.128906 23.890625 -12.066406 23.890625 -11.234375 C 23.890625 -10.410156 23.851562 -9.726562 23.78125 -9.1875 C 23.71875 -8.65625 23.625 -8.132812 23.5 -7.625 C 22.9375 -5.34375 21.84375 -3.566406 20.21875 -2.296875 C 18.601562 -1.023438 16.546875 -0.316406 14.046875 -0.171875 Z M 13.71875 -5.546875 C 15.96875 -5.679688 17.378906 -6.820312 17.953125 -8.96875 C 18.023438 -9.269531 18.078125 -9.609375 18.109375 -9.984375 C 18.140625 -10.367188 18.160156 -10.894531 18.171875 -11.5625 C 18.179688 -12.238281 18.148438 -13.175781 18.078125 -14.375 C 18.003906 -15.570312 17.910156 -17.144531 17.796875 -19.09375 C 17.679688 -21.039062 17.585938 -22.597656 17.515625 -23.765625 C 17.441406 -24.941406 17.359375 -25.863281 17.265625 -26.53125 C 17.179688 -27.207031 17.097656 -27.726562 17.015625 -28.09375 C 16.941406 -28.46875 16.851562 -28.804688 16.75 -29.109375 C 15.925781 -31.160156 14.390625 -32.117188 12.140625 -31.984375 C 9.898438 -31.847656 8.488281 -30.710938 7.90625 -28.578125 C 7.820312 -28.265625 7.765625 -27.921875 7.734375 -27.546875 C 7.710938 -27.171875 7.695312 -26.644531 7.6875 -25.96875 C 7.675781 -25.289062 7.707031 -24.363281 7.78125 -23.1875 C 7.851562 -22.019531 7.945312 -20.460938 8.0625 -18.515625 C 8.175781 -16.566406 8.269531 -14.992188 8.34375 -13.796875 C 8.414062 -12.597656 8.492188 -11.664062 8.578125 -11 C 8.671875 -10.332031 8.753906 -9.8125 8.828125 -9.4375 C 8.898438 -9.0625 8.992188 -8.726562 9.109375 -8.4375 C 9.941406 -6.375 11.476562 -5.410156 13.71875 -5.546875 Z M 13.71875 -5.546875 "/></g></g></g><g fill="#f7b628" fill-opacity="1"><g transform="translate(698.737934, 1339.88446)"><g><path d="M 24.890625 -3.453125 C 24.390625 -3.378906 24.078125 -3.585938 23.953125 -4.078125 L 16.203125 -26.765625 L 16.0625 -26.75 L 14.90625 -2.828125 C 14.925781 -2.316406 14.6875 -2.03125 14.1875 -1.96875 L 10.5625 -1.46875 C 10.0625 -1.394531 9.75 -1.601562 9.625 -2.09375 L -2.8125 -35.125 C -3.039062 -35.59375 -2.910156 -35.859375 -2.421875 -35.921875 L 2.046875 -36.546875 C 2.441406 -36.597656 2.722656 -36.390625 2.890625 -35.921875 L 10.9375 -12.328125 L 11 -12.34375 L 12.40625 -37.234375 C 12.425781 -37.734375 12.660156 -38.015625 13.109375 -38.078125 L 16.234375 -38.515625 C 16.628906 -38.566406 16.914062 -38.351562 17.09375 -37.875 L 25.125 -14.296875 L 25.203125 -14.3125 L 26.53125 -39.1875 C 26.550781 -39.6875 26.78125 -39.96875 27.21875 -40.03125 L 31.625 -40.640625 C 32.113281 -40.710938 32.316406 -40.492188 32.234375 -39.984375 L 29.234375 -4.8125 C 29.253906 -4.3125 29.019531 -4.023438 28.53125 -3.953125 Z M 24.890625 -3.453125 "/></g></g></g><g fill="#f7b628" fill-opacity="1"><g transform="translate(739.219062, 1333.983772)"><g><path d="M 13.625 -2.296875 C 11.175781 -1.753906 9.046875 -1.875 7.234375 -2.65625 C 5.429688 -3.445312 3.957031 -4.835938 2.8125 -6.828125 C 2.570312 -7.179688 2.347656 -7.59375 2.140625 -8.0625 C 1.941406 -8.53125 1.710938 -9.179688 1.453125 -10.015625 C 1.191406 -10.859375 0.90625 -11.9375 0.59375 -13.25 C 0.28125 -14.5625 -0.0976562 -16.242188 -0.546875 -18.296875 C -0.992188 -20.359375 -1.34375 -22.035156 -1.59375 -23.328125 C -1.851562 -24.628906 -2.039062 -25.710938 -2.15625 -26.578125 C -2.269531 -27.453125 -2.332031 -28.144531 -2.34375 -28.65625 C -2.363281 -29.164062 -2.34375 -29.65625 -2.28125 -30.125 C -2.0625 -32.382812 -1.28125 -34.242188 0.0625 -35.703125 C 1.40625 -37.171875 3.320312 -38.179688 5.8125 -38.734375 C 8.3125 -39.273438 10.460938 -39.15625 12.265625 -38.375 C 14.078125 -37.601562 15.550781 -36.238281 16.6875 -34.28125 C 16.914062 -33.925781 17.132812 -33.5 17.34375 -33 C 17.5625 -32.507812 17.804688 -31.804688 18.078125 -30.890625 C 18.359375 -29.984375 18.664062 -28.8125 19 -27.375 C 19.34375 -25.9375 19.765625 -24.070312 20.265625 -21.78125 C 20.378906 -21.289062 20.191406 -20.992188 19.703125 -20.890625 L 5.921875 -17.875 C 5.628906 -17.8125 5.515625 -17.632812 5.578125 -17.34375 C 5.878906 -15.925781 6.140625 -14.765625 6.359375 -13.859375 C 6.578125 -12.960938 6.769531 -12.25 6.9375 -11.71875 C 7.113281 -11.195312 7.257812 -10.78125 7.375 -10.46875 C 7.5 -10.164062 7.632812 -9.898438 7.78125 -9.671875 C 8.957031 -7.835938 10.550781 -7.140625 12.5625 -7.578125 C 14.945312 -8.097656 16.210938 -9.757812 16.359375 -12.5625 C 16.410156 -13.082031 16.664062 -13.34375 17.125 -13.34375 L 21.171875 -13.375 C 21.617188 -13.414062 21.851562 -13.164062 21.875 -12.625 C 21.957031 -9.96875 21.273438 -7.726562 19.828125 -5.90625 C 18.378906 -4.082031 16.3125 -2.878906 13.625 -2.296875 Z M 13.296875 -24.484375 C 13.585938 -24.546875 13.703125 -24.722656 13.640625 -25.015625 C 13.390625 -26.140625 13.171875 -27.078125 12.984375 -27.828125 C 12.796875 -28.578125 12.625 -29.191406 12.46875 -29.671875 C 12.320312 -30.148438 12.175781 -30.523438 12.03125 -30.796875 C 11.894531 -31.078125 11.78125 -31.332031 11.6875 -31.5625 C 10.625 -33.382812 9.039062 -34.066406 6.9375 -33.609375 C 4.789062 -33.140625 3.613281 -31.851562 3.40625 -29.75 C 3.363281 -29.488281 3.347656 -29.207031 3.359375 -28.90625 C 3.367188 -28.601562 3.398438 -28.203125 3.453125 -27.703125 C 3.503906 -27.203125 3.601562 -26.570312 3.75 -25.8125 C 3.894531 -25.050781 4.09375 -24.109375 4.34375 -22.984375 C 4.40625 -22.691406 4.582031 -22.578125 4.875 -22.640625 Z M 13.296875 -24.484375 "/></g></g></g><g fill="#f7b628" fill-opacity="1"><g transform="translate(767.17496, 1327.743482)"><g><path d="M 4.90625 -1.359375 C 4.425781 -1.222656 4.117188 -1.394531 3.984375 -1.875 L -5.21875 -35.046875 C -5.351562 -35.523438 -5.179688 -35.832031 -4.703125 -35.96875 L -0.578125 -37.109375 C -0.0976562 -37.242188 0.207031 -37.070312 0.34375 -36.59375 L 1.25 -33.34375 L 1.328125 -33.375 C 1.523438 -34.882812 2.070312 -36.226562 2.96875 -37.40625 C 3.863281 -38.582031 5.203125 -39.421875 6.984375 -39.921875 C 7.515625 -40.066406 7.984375 -40.144531 8.390625 -40.15625 C 8.859375 -40.175781 9.078125 -39.953125 9.046875 -39.484375 L 9.1875 -35.078125 C 9.15625 -34.609375 8.925781 -34.316406 8.5 -34.203125 L 7.40625 -33.890625 C 5.71875 -33.421875 4.484375 -32.425781 3.703125 -30.90625 C 2.929688 -29.394531 2.898438 -27.363281 3.609375 -24.8125 L 9.546875 -3.421875 C 9.679688 -2.941406 9.507812 -2.632812 9.03125 -2.5 Z M 4.90625 -1.359375 "/></g></g></g><g fill="#f7b628" fill-opacity="1"><g transform="translate(787.934895, 1322.054993)"><g><path d="M 13.28125 -3.78125 C 10.914062 -2.976562 8.789062 -2.867188 6.90625 -3.453125 C 5.019531 -4.035156 3.394531 -5.25 2.03125 -7.09375 C 1.757812 -7.414062 1.492188 -7.796875 1.234375 -8.234375 C 0.984375 -8.679688 0.679688 -9.3125 0.328125 -10.125 C -0.015625 -10.9375 -0.410156 -11.972656 -0.859375 -13.234375 C -1.316406 -14.503906 -1.882812 -16.132812 -2.5625 -18.125 C -3.238281 -20.125 -3.773438 -21.753906 -4.171875 -23.015625 C -4.578125 -24.273438 -4.882812 -25.328125 -5.09375 -26.171875 C -5.300781 -27.023438 -5.4375 -27.703125 -5.5 -28.203125 C -5.570312 -28.710938 -5.609375 -29.207031 -5.609375 -29.6875 C -5.640625 -31.957031 -5.066406 -33.894531 -3.890625 -35.5 C -2.710938 -37.101562 -0.914062 -38.3125 1.5 -39.125 C 3.914062 -39.945312 6.0625 -40.070312 7.9375 -39.5 C 9.820312 -38.925781 11.4375 -37.734375 12.78125 -35.921875 C 13.0625 -35.585938 13.332031 -35.1875 13.59375 -34.71875 C 13.851562 -34.25 14.171875 -33.578125 14.546875 -32.703125 C 14.921875 -31.835938 15.351562 -30.707031 15.84375 -29.3125 C 16.34375 -27.925781 16.96875 -26.125 17.71875 -23.90625 C 17.882812 -23.425781 17.734375 -23.101562 17.265625 -22.9375 L 3.90625 -18.421875 C 3.625 -18.328125 3.53125 -18.140625 3.625 -17.859375 C 4.09375 -16.484375 4.484375 -15.359375 4.796875 -14.484375 C 5.117188 -13.617188 5.390625 -12.929688 5.609375 -12.421875 C 5.828125 -11.921875 6.015625 -11.519531 6.171875 -11.21875 C 6.328125 -10.925781 6.488281 -10.679688 6.65625 -10.484375 C 8.03125 -8.773438 9.6875 -8.253906 11.625 -8.921875 C 13.945312 -9.703125 15.03125 -11.492188 14.875 -14.296875 C 14.863281 -14.828125 15.085938 -15.113281 15.546875 -15.15625 L 19.578125 -15.640625 C 20.003906 -15.734375 20.265625 -15.507812 20.359375 -14.96875 C 20.710938 -12.332031 20.269531 -10.03125 19.03125 -8.0625 C 17.800781 -6.09375 15.882812 -4.664062 13.28125 -3.78125 Z M 10.5 -25.8125 C 10.789062 -25.90625 10.882812 -26.09375 10.78125 -26.375 C 10.414062 -27.46875 10.09375 -28.375 9.8125 -29.09375 C 9.539062 -29.820312 9.304688 -30.414062 9.109375 -30.875 C 8.910156 -31.332031 8.722656 -31.691406 8.546875 -31.953125 C 8.367188 -32.210938 8.226562 -32.445312 8.125 -32.65625 C 6.851562 -34.34375 5.203125 -34.84375 3.171875 -34.15625 C 1.085938 -33.457031 0.0546875 -32.050781 0.078125 -29.9375 C 0.0664062 -29.675781 0.0820312 -29.394531 0.125 -29.09375 C 0.175781 -28.800781 0.253906 -28.410156 0.359375 -27.921875 C 0.472656 -27.429688 0.644531 -26.816406 0.875 -26.078125 C 1.101562 -25.335938 1.398438 -24.421875 1.765625 -23.328125 C 1.867188 -23.046875 2.0625 -22.953125 2.34375 -23.046875 Z M 10.5 -25.8125 "/></g></g></g><g fill="#f7b628" fill-opacity="1"><g transform="translate(815.248601, 1312.800033)"><g><path d="M 18.296875 -7.5625 C 17.835938 -7.363281 17.515625 -7.492188 17.328125 -7.953125 L 16.203125 -10.65625 L 16.125 -10.640625 C 16.125 -9.335938 15.800781 -8.09375 15.15625 -6.90625 C 14.507812 -5.71875 13.285156 -4.753906 11.484375 -4.015625 C 7.828125 -2.503906 4.679688 -3.3125 2.046875 -6.4375 C 1.710938 -6.84375 1.378906 -7.289062 1.046875 -7.78125 C 0.710938 -8.269531 0.335938 -8.921875 -0.078125 -9.734375 C -0.503906 -10.554688 -1 -11.625 -1.5625 -12.9375 C -2.132812 -14.25 -2.84375 -15.921875 -3.6875 -17.953125 C -4.519531 -19.984375 -5.195312 -21.660156 -5.71875 -22.984375 C -6.238281 -24.316406 -6.632812 -25.414062 -6.90625 -26.28125 C -7.1875 -27.144531 -7.378906 -27.863281 -7.484375 -28.4375 C -7.585938 -29.019531 -7.664062 -29.566406 -7.71875 -30.078125 C -8.050781 -34.160156 -6.390625 -36.957031 -2.734375 -38.46875 C -0.929688 -39.207031 0.609375 -39.394531 1.890625 -39.03125 C 3.171875 -38.675781 4.28125 -38.019531 5.21875 -37.0625 L 5.296875 -37.078125 L -1.578125 -53.703125 C -1.765625 -54.171875 -1.628906 -54.503906 -1.171875 -54.703125 L 2.78125 -56.328125 C 3.25 -56.523438 3.578125 -56.390625 3.765625 -55.921875 L 22.671875 -10.171875 C 22.859375 -9.710938 22.71875 -9.382812 22.25 -9.1875 Z M 11.296875 -9.765625 C 12.316406 -10.191406 13.054688 -10.796875 13.515625 -11.578125 C 13.972656 -12.367188 14.175781 -13.296875 14.125 -14.359375 C 14.082031 -14.671875 14.023438 -15.015625 13.953125 -15.390625 C 13.890625 -15.765625 13.738281 -16.265625 13.5 -16.890625 C 13.269531 -17.523438 12.9375 -18.398438 12.5 -19.515625 C 12.070312 -20.640625 11.484375 -22.101562 10.734375 -23.90625 C 9.992188 -25.707031 9.382812 -27.144531 8.90625 -28.21875 C 8.425781 -29.300781 8.046875 -30.148438 7.765625 -30.765625 C 7.492188 -31.378906 7.25 -31.84375 7.03125 -32.15625 C 6.820312 -32.46875 6.617188 -32.75 6.421875 -33 C 5.710938 -33.789062 4.914062 -34.300781 4.03125 -34.53125 C 3.144531 -34.769531 2.191406 -34.675781 1.171875 -34.25 C -0.898438 -33.394531 -1.851562 -31.859375 -1.6875 -29.640625 C -1.675781 -29.316406 -1.628906 -28.96875 -1.546875 -28.59375 C -1.472656 -28.226562 -1.320312 -27.726562 -1.09375 -27.09375 C -0.863281 -26.457031 -0.535156 -25.59375 -0.109375 -24.5 C 0.316406 -23.40625 0.898438 -21.957031 1.640625 -20.15625 C 2.390625 -18.351562 3.003906 -16.898438 3.484375 -15.796875 C 3.972656 -14.691406 4.359375 -13.832031 4.640625 -13.21875 C 4.921875 -12.613281 5.160156 -12.148438 5.359375 -11.828125 C 5.566406 -11.515625 5.785156 -11.238281 6.015625 -11 C 7.460938 -9.320312 9.222656 -8.910156 11.296875 -9.765625 Z M 11.296875 -9.765625 "/></g></g></g><g fill="#f7b628" fill-opacity="1"><g transform="translate(856.809941, 1294.753142)"><g><path d="M 15.328125 -7.453125 C 13.597656 -6.523438 12.070312 -6.1875 10.75 -6.4375 C 9.425781 -6.695312 8.265625 -7.238281 7.265625 -8.0625 L 7.1875 -8.015625 L 8.5625 -5.4375 C 8.800781 -5 8.703125 -4.660156 8.265625 -4.421875 L 4.484375 -2.40625 C 4.046875 -2.164062 3.707031 -2.265625 3.46875 -2.703125 L -19.90625 -46.328125 C -20.144531 -46.773438 -20.046875 -47.117188 -19.609375 -47.359375 L -15.828125 -49.375 C -15.390625 -49.613281 -15.050781 -49.507812 -14.8125 -49.0625 L -6.3125 -33.203125 L -6.234375 -33.25 C -6.390625 -34.582031 -6.195312 -35.859375 -5.65625 -37.078125 C -5.125 -38.296875 -3.992188 -39.367188 -2.265625 -40.296875 C 1.210938 -42.160156 4.414062 -41.671875 7.34375 -38.828125 C 7.71875 -38.453125 8.09375 -38.039062 8.46875 -37.59375 C 8.851562 -37.15625 9.289062 -36.554688 9.78125 -35.796875 C 10.28125 -35.046875 10.875 -34.046875 11.5625 -32.796875 C 12.257812 -31.546875 13.128906 -29.953125 14.171875 -28.015625 C 15.203125 -26.078125 16.046875 -24.472656 16.703125 -23.203125 C 17.359375 -21.941406 17.867188 -20.882812 18.234375 -20.03125 C 18.597656 -19.1875 18.863281 -18.476562 19.03125 -17.90625 C 19.195312 -17.332031 19.332031 -16.796875 19.4375 -16.296875 C 20.175781 -12.265625 18.804688 -9.316406 15.328125 -7.453125 Z M 11.0625 -11.28125 C 12.988281 -12.320312 13.769531 -13.929688 13.40625 -16.109375 C 13.34375 -16.429688 13.253906 -16.773438 13.140625 -17.140625 C 13.035156 -17.503906 12.832031 -17.988281 12.53125 -18.59375 C 12.238281 -19.195312 11.816406 -20.035156 11.265625 -21.109375 C 10.722656 -22.179688 9.992188 -23.570312 9.078125 -25.28125 C 8.148438 -27 7.398438 -28.367188 6.828125 -29.390625 C 6.253906 -30.421875 5.796875 -31.226562 5.453125 -31.8125 C 5.117188 -32.394531 4.828125 -32.832031 4.578125 -33.125 C 4.335938 -33.414062 4.101562 -33.671875 3.875 -33.890625 C 2.257812 -35.421875 0.488281 -35.664062 -1.4375 -34.625 C -2.457031 -34.070312 -3.15625 -33.382812 -3.53125 -32.5625 C -3.914062 -31.738281 -4.023438 -30.800781 -3.859375 -29.75 C -3.804688 -29.425781 -3.722656 -29.082031 -3.609375 -28.71875 C -3.492188 -28.363281 -3.285156 -27.882812 -2.984375 -27.28125 C -2.691406 -26.675781 -2.28125 -25.847656 -1.75 -24.796875 C -1.226562 -23.742188 -0.503906 -22.359375 0.421875 -20.640625 C 1.335938 -18.929688 2.09375 -17.550781 2.6875 -16.5 C 3.28125 -15.457031 3.742188 -14.644531 4.078125 -14.0625 C 4.421875 -13.476562 4.710938 -13.035156 4.953125 -12.734375 C 5.191406 -12.441406 5.429688 -12.1875 5.671875 -11.96875 C 6.441406 -11.257812 7.273438 -10.828125 8.171875 -10.671875 C 9.078125 -10.523438 10.039062 -10.726562 11.0625 -11.28125 Z M 11.0625 -11.28125 "/></g></g></g><g fill="#f7b628" fill-opacity="1"><g transform="translate(883.557146, 1280.324409)"><g><path d="M 11.078125 9.015625 C 10.648438 9.273438 10.304688 9.191406 10.046875 8.765625 L 7.953125 5.390625 C 7.691406 4.960938 7.773438 4.617188 8.203125 4.359375 L 8.90625 3.8125 C 9.769531 3.21875 10.300781 2.535156 10.5 1.765625 C 10.695312 0.992188 10.546875 -0.175781 10.046875 -1.75 L 8.5 -6.609375 L -16.921875 -30.890625 C -17.265625 -31.265625 -17.226562 -31.582031 -16.8125 -31.84375 L -12.984375 -34.21875 C -12.640625 -34.4375 -12.296875 -34.359375 -11.953125 -33.984375 L 5.703125 -16.09375 L 5.84375 -16.171875 L -2.40625 -39.921875 C -2.570312 -40.398438 -2.46875 -40.757812 -2.09375 -41 L 1.59375 -43.296875 C 2.019531 -43.554688 2.300781 -43.4375 2.4375 -42.9375 L 14.5625 -4.828125 C 15.226562 -2.816406 15.65625 -1.117188 15.84375 0.265625 C 16.03125 1.648438 16.003906 2.835938 15.765625 3.828125 C 15.535156 4.828125 15.085938 5.695312 14.421875 6.4375 C 13.753906 7.175781 12.867188 7.890625 11.765625 8.578125 Z M 11.078125 9.015625 "/></g></g></g><g fill="#f7b628" fill-opacity="1"><g transform="translate(906.827344, 1265.650652)"><g/></g></g><g fill="#f7b628" fill-opacity="1"><g transform="translate(919.416215, 1257.156281)"><g><path d="M -0.515625 -8.203125 C -0.941406 -8.503906 -1.40625 -8.882812 -1.90625 -9.34375 C -2.414062 -9.800781 -3.09375 -10.523438 -3.9375 -11.515625 C -4.789062 -12.503906 -5.894531 -13.863281 -7.25 -15.59375 C -8.613281 -17.320312 -10.390625 -19.617188 -12.578125 -22.484375 C -14.765625 -25.347656 -16.515625 -27.660156 -17.828125 -29.421875 C -19.148438 -31.179688 -20.175781 -32.597656 -20.90625 -33.671875 C -21.632812 -34.742188 -22.144531 -35.578125 -22.4375 -36.171875 C -22.738281 -36.765625 -22.992188 -37.328125 -23.203125 -37.859375 C -24.023438 -40.253906 -24.117188 -42.515625 -23.484375 -44.640625 C -22.847656 -46.765625 -21.378906 -48.707031 -19.078125 -50.46875 C -16.421875 -52.5 -13.753906 -53.375 -11.078125 -53.09375 C -8.398438 -52.8125 -5.742188 -51.226562 -3.109375 -48.34375 C -2.765625 -47.976562 -2.734375 -47.617188 -3.015625 -47.265625 L -5.90625 -44 C -6.300781 -43.59375 -6.648438 -43.585938 -6.953125 -43.984375 C -9.984375 -47.378906 -12.847656 -48.039062 -15.546875 -45.96875 C -17.648438 -44.363281 -18.285156 -42.40625 -17.453125 -40.09375 C -17.316406 -39.75 -17.132812 -39.347656 -16.90625 -38.890625 C -16.6875 -38.429688 -16.25 -37.726562 -15.59375 -36.78125 C -14.9375 -35.84375 -13.984375 -34.539062 -12.734375 -32.875 C -11.492188 -31.21875 -9.8125 -29 -7.6875 -26.21875 C -5.53125 -23.394531 -3.820312 -21.175781 -2.5625 -19.5625 C -1.300781 -17.957031 -0.300781 -16.710938 0.4375 -15.828125 C 1.1875 -14.953125 1.75 -14.34375 2.125 -14 C 2.507812 -13.65625 2.851562 -13.375 3.15625 -13.15625 C 5.164062 -11.757812 7.222656 -11.863281 9.328125 -13.46875 C 12.023438 -15.539062 12.128906 -18.484375 9.640625 -22.296875 C 9.335938 -22.691406 9.441406 -23.019531 9.953125 -23.28125 L 13.84375 -25.234375 C 14.257812 -25.421875 14.597656 -25.300781 14.859375 -24.875 C 16.953125 -21.570312 17.785156 -18.59375 17.359375 -15.9375 C 16.929688 -13.28125 15.390625 -10.9375 12.734375 -8.90625 C 10.429688 -7.144531 8.171875 -6.234375 5.953125 -6.171875 C 3.742188 -6.109375 1.585938 -6.785156 -0.515625 -8.203125 Z M -0.515625 -8.203125 "/></g></g></g><g fill="#f7b628" fill-opacity="1"><g transform="translate(943.125816, 1238.997378)"><g><path d="M -24.015625 -45.796875 C -24.234375 -46.273438 -24.191406 -46.644531 -23.890625 -46.90625 L -20.515625 -49.890625 C -20.171875 -50.179688 -19.796875 -50.175781 -19.390625 -49.875 L 21.34375 -19.78125 C 21.757812 -19.46875 21.757812 -19.128906 21.34375 -18.765625 L 17.96875 -15.796875 C 17.625 -15.503906 17.25 -15.507812 16.84375 -15.8125 L 7.78125 -22.71875 L -0.71875 -15.25 L 4.96875 -5.375 C 5.21875 -4.925781 5.195312 -4.570312 4.90625 -4.3125 L 1.53125 -1.34375 C 1.113281 -0.976562 0.773438 -1.015625 0.515625 -1.453125 Z M 3.515625 -25.96875 L -14.390625 -39.765625 L -14.578125 -39.609375 L -3.40625 -19.875 Z M 3.515625 -25.96875 "/></g></g></g><g fill="#f7b628" fill-opacity="1"><g transform="translate(967.051096, 1217.967002)"><g><path d="M -32.734375 -38.390625 C -33.085938 -38.742188 -33.09375 -39.097656 -32.75 -39.453125 L -28.8125 -43.46875 C -28.382812 -43.894531 -27.941406 -43.984375 -27.484375 -43.734375 L 7.828125 -25.125 L 8.03125 -25.328125 L -19.296875 -52.09375 C -19.648438 -52.445312 -19.65625 -52.804688 -19.3125 -53.171875 L -16.53125 -56 C -16.175781 -56.351562 -15.820312 -56.351562 -15.46875 -56 L 19.890625 -21.359375 C 20.242188 -21.003906 20.242188 -20.648438 19.890625 -20.296875 L 16.171875 -16.5 C 15.753906 -16.070312 15.3125 -15.976562 14.84375 -16.21875 L -20.609375 -34.6875 L -20.859375 -34.421875 L 6.453125 -7.65625 C 6.804688 -7.300781 6.804688 -6.941406 6.453125 -6.578125 L 3.671875 -3.75 C 3.328125 -3.394531 2.976562 -3.394531 2.625 -3.75 Z M -32.734375 -38.390625 "/></g></g></g><g fill="#f7b628" fill-opacity="1"><g transform="translate(991.135364, 1192.969468)"><g/></g></g><g fill="#f7b628" fill-opacity="1"><g transform="translate(1001.348241, 1181.635646)"><g><path d="M 18.234375 -21.453125 C 18.328125 -20.910156 18.128906 -20.617188 17.640625 -20.578125 L 13.078125 -19.765625 C 13.191406 -17.066406 12.273438 -14.484375 10.328125 -12.015625 C 8.523438 -9.734375 6.53125 -8.253906 4.34375 -7.578125 C 2.164062 -6.910156 -0.128906 -7.023438 -2.546875 -7.921875 C -3.097656 -8.097656 -3.664062 -8.335938 -4.25 -8.640625 C -4.84375 -8.953125 -5.664062 -9.472656 -6.71875 -10.203125 C -7.769531 -10.941406 -9.164062 -11.976562 -10.90625 -13.3125 C -12.644531 -14.65625 -14.929688 -16.441406 -17.765625 -18.671875 C -20.597656 -20.898438 -22.867188 -22.703125 -24.578125 -24.078125 C -26.296875 -25.460938 -27.628906 -26.578125 -28.578125 -27.421875 C -29.535156 -28.265625 -30.226562 -28.9375 -30.65625 -29.4375 C -31.09375 -29.9375 -31.460938 -30.4375 -31.765625 -30.9375 C -33.210938 -33.082031 -33.863281 -35.289062 -33.71875 -37.5625 C -33.570312 -39.84375 -32.597656 -42.125 -30.796875 -44.40625 C -29.003906 -46.675781 -27.015625 -48.15625 -24.828125 -48.84375 C -22.640625 -49.539062 -20.34375 -49.425781 -17.9375 -48.5 C -17.382812 -48.320312 -16.8125 -48.078125 -16.21875 -47.765625 C -15.632812 -47.453125 -14.816406 -46.929688 -13.765625 -46.203125 C -12.722656 -45.484375 -11.332031 -44.453125 -9.59375 -43.109375 C -7.851562 -41.765625 -5.566406 -39.976562 -2.734375 -37.75 C 0.285156 -35.363281 2.664062 -33.453125 4.40625 -32.015625 C 6.15625 -30.585938 7.5 -29.421875 8.4375 -28.515625 C 9.382812 -27.617188 10.050781 -26.890625 10.4375 -26.328125 C 10.820312 -25.773438 11.207031 -25.1875 11.59375 -24.5625 L 16.5625 -25.625 C 17.03125 -25.75 17.335938 -25.570312 17.484375 -25.09375 Z M 5.90625 -15.5 C 6.457031 -16.195312 6.851562 -16.820312 7.09375 -17.375 C 7.332031 -17.925781 7.488281 -18.453125 7.5625 -18.953125 L 2.390625 -17.953125 C 1.910156 -17.898438 1.609375 -18.117188 1.484375 -18.609375 L 0.84375 -21.671875 C 0.75 -22.128906 0.941406 -22.421875 1.421875 -22.546875 L 5.46875 -23.1875 C 5.144531 -23.5 4.679688 -23.925781 4.078125 -24.46875 C 3.484375 -25.007812 2.710938 -25.664062 1.765625 -26.4375 C 0.816406 -27.207031 -0.332031 -28.125 -1.6875 -29.1875 C -3.039062 -30.257812 -4.640625 -31.523438 -6.484375 -32.984375 C -9.273438 -35.179688 -11.492188 -36.910156 -13.140625 -38.171875 C -14.785156 -39.441406 -16.066406 -40.398438 -16.984375 -41.046875 C -17.898438 -41.703125 -18.554688 -42.140625 -18.953125 -42.359375 C -19.359375 -42.585938 -19.765625 -42.765625 -20.171875 -42.890625 C -21.304688 -43.285156 -22.40625 -43.3125 -23.46875 -42.96875 C -24.53125 -42.625 -25.476562 -41.925781 -26.3125 -40.875 C -27.15625 -39.8125 -27.613281 -38.722656 -27.6875 -37.609375 C -27.769531 -36.503906 -27.488281 -35.4375 -26.84375 -34.40625 C -26.625 -34.039062 -26.359375 -33.6875 -26.046875 -33.34375 C -25.742188 -33 -25.164062 -32.460938 -24.3125 -31.734375 C -23.457031 -31.003906 -22.222656 -29.988281 -20.609375 -28.6875 C -18.992188 -27.382812 -16.789062 -25.632812 -14 -23.4375 C -11.207031 -21.238281 -8.988281 -19.503906 -7.34375 -18.234375 C -5.707031 -16.972656 -4.429688 -16.015625 -3.515625 -15.359375 C -2.597656 -14.703125 -1.925781 -14.257812 -1.5 -14.03125 C -1.082031 -13.800781 -0.671875 -13.613281 -0.265625 -13.46875 C 0.890625 -13.082031 1.992188 -13.054688 3.046875 -13.390625 C 4.109375 -13.734375 5.0625 -14.4375 5.90625 -15.5 Z M 5.90625 -15.5 "/></g></g></g><g fill="#f7b628" fill-opacity="1"><g transform="translate(1021.680565, 1155.670235)"><g><path d="M 11.171875 -16.4375 C 10.890625 -16.019531 10.539062 -15.953125 10.125 -16.234375 L 7.78125 -17.828125 L 7.734375 -17.765625 C 8.410156 -16.648438 8.785156 -15.414062 8.859375 -14.0625 C 8.941406 -12.707031 8.476562 -11.285156 7.46875 -9.796875 C 5.925781 -7.523438 4.03125 -6.316406 1.78125 -6.171875 C -0.457031 -6.023438 -3.164062 -7.035156 -6.34375 -9.203125 L -26.8125 -23.109375 C -27.226562 -23.390625 -27.296875 -23.738281 -27.015625 -24.15625 L -24.625 -27.703125 C -24.34375 -28.109375 -23.992188 -28.171875 -23.578125 -27.890625 L -3.796875 -14.453125 C -0.191406 -12.003906 2.476562 -12.0625 4.21875 -14.625 C 5.039062 -15.832031 5.238281 -17.078125 4.8125 -18.359375 C 4.382812 -19.640625 3.257812 -20.898438 1.4375 -22.140625 L -18.34375 -35.578125 C -18.757812 -35.859375 -18.828125 -36.207031 -18.546875 -36.625 L -16.140625 -40.171875 C -15.859375 -40.585938 -15.507812 -40.65625 -15.09375 -40.375 L 13.375 -21.03125 C 13.789062 -20.75 13.859375 -20.398438 13.578125 -19.984375 Z M 11.171875 -16.4375 "/></g></g></g><g fill="#f7b628" fill-opacity="1"><g transform="translate(1038.758216, 1130.413333)"><g><path d="M 7.5625 -11.546875 C 6.300781 -9.390625 4.769531 -7.914062 2.96875 -7.125 C 1.164062 -6.332031 -0.859375 -6.191406 -3.109375 -6.703125 C -3.523438 -6.765625 -3.972656 -6.878906 -4.453125 -7.046875 C -4.941406 -7.222656 -5.582031 -7.5 -6.375 -7.875 C -7.164062 -8.257812 -8.148438 -8.78125 -9.328125 -9.4375 C -10.503906 -10.09375 -12 -10.953125 -13.8125 -12.015625 C -15.632812 -13.085938 -17.109375 -13.96875 -18.234375 -14.65625 C -19.359375 -15.351562 -20.273438 -15.953125 -20.984375 -16.453125 C -21.703125 -16.960938 -22.25 -17.382812 -22.625 -17.71875 C -23.007812 -18.0625 -23.359375 -18.414062 -23.671875 -18.78125 C -25.179688 -20.476562 -26.015625 -22.316406 -26.171875 -24.296875 C -26.335938 -26.273438 -25.773438 -28.363281 -24.484375 -30.5625 C -23.191406 -32.757812 -21.644531 -34.257812 -19.84375 -35.0625 C -18.050781 -35.863281 -16.046875 -36.019531 -13.828125 -35.53125 C -13.410156 -35.457031 -12.945312 -35.328125 -12.4375 -35.140625 C -11.9375 -34.960938 -11.257812 -34.664062 -10.40625 -34.25 C -9.550781 -33.832031 -8.476562 -33.257812 -7.1875 -32.53125 C -5.90625 -31.800781 -4.253906 -30.84375 -2.234375 -29.65625 C -1.796875 -29.40625 -1.707031 -29.066406 -1.96875 -28.640625 L -9.109375 -16.46875 C -9.253906 -16.21875 -9.195312 -16.015625 -8.9375 -15.859375 C -7.6875 -15.128906 -6.65625 -14.539062 -5.84375 -14.09375 C -5.039062 -13.644531 -4.390625 -13.300781 -3.890625 -13.0625 C -3.390625 -12.832031 -2.984375 -12.65625 -2.671875 -12.53125 C -2.367188 -12.414062 -2.085938 -12.335938 -1.828125 -12.296875 C 0.328125 -11.898438 1.925781 -12.585938 2.96875 -14.359375 C 4.207031 -16.460938 3.84375 -18.523438 1.875 -20.546875 C 1.53125 -20.929688 1.519531 -21.289062 1.84375 -21.625 L 4.546875 -24.625 C 4.828125 -24.988281 5.171875 -24.992188 5.578125 -24.640625 C 7.578125 -22.890625 8.753906 -20.863281 9.109375 -18.5625 C 9.472656 -16.257812 8.957031 -13.921875 7.5625 -11.546875 Z M -8.9375 -26.375 C -8.789062 -26.632812 -8.847656 -26.84375 -9.109375 -27 C -10.097656 -27.582031 -10.929688 -28.054688 -11.609375 -28.421875 C -12.296875 -28.796875 -12.863281 -29.085938 -13.3125 -29.296875 C -13.769531 -29.515625 -14.144531 -29.664062 -14.4375 -29.75 C -14.726562 -29.832031 -15 -29.921875 -15.25 -30.015625 C -17.300781 -30.460938 -18.875 -29.757812 -19.96875 -27.90625 C -21.082031 -26.007812 -20.941406 -24.273438 -19.546875 -22.703125 C -19.367188 -22.492188 -19.164062 -22.289062 -18.9375 -22.09375 C -18.707031 -21.894531 -18.390625 -21.644531 -17.984375 -21.34375 C -17.585938 -21.050781 -17.054688 -20.695312 -16.390625 -20.28125 C -15.734375 -19.875 -14.910156 -19.378906 -13.921875 -18.796875 C -13.660156 -18.640625 -13.457031 -18.6875 -13.3125 -18.9375 Z M -8.9375 -26.375 "/></g></g></g><g fill="#f7b628" fill-opacity="1"><g transform="translate(1053.312587, 1105.557009)"><g><path d="M 6.8125 -12.015625 C 5.6875 -9.785156 4.25 -8.210938 2.5 -7.296875 C 0.75 -6.390625 -1.257812 -6.117188 -3.53125 -6.484375 C -3.957031 -6.523438 -4.414062 -6.613281 -4.90625 -6.75 C -5.394531 -6.894531 -6.046875 -7.128906 -6.859375 -7.453125 C -7.671875 -7.773438 -8.6875 -8.226562 -9.90625 -8.8125 C -11.125 -9.40625 -12.671875 -10.175781 -14.546875 -11.125 C -16.429688 -12.070312 -17.957031 -12.851562 -19.125 -13.46875 C -20.289062 -14.082031 -21.25 -14.617188 -22 -15.078125 C -22.75 -15.546875 -23.320312 -15.9375 -23.71875 -16.25 C -24.125 -16.5625 -24.492188 -16.890625 -24.828125 -17.234375 C -26.429688 -18.828125 -27.378906 -20.609375 -27.671875 -22.578125 C -27.960938 -24.546875 -27.535156 -26.664062 -26.390625 -28.9375 C -25.234375 -31.21875 -23.78125 -32.8125 -22.03125 -33.71875 C -20.289062 -34.632812 -18.304688 -34.921875 -16.078125 -34.578125 C -15.660156 -34.523438 -15.191406 -34.425781 -14.671875 -34.28125 C -14.160156 -34.132812 -13.460938 -33.878906 -12.578125 -33.515625 C -11.691406 -33.160156 -10.582031 -32.660156 -9.25 -32.015625 C -7.925781 -31.367188 -6.21875 -30.519531 -4.125 -29.46875 C -3.675781 -29.238281 -3.566406 -28.898438 -3.796875 -28.453125 L -10.140625 -15.859375 C -10.273438 -15.597656 -10.207031 -15.398438 -9.9375 -15.265625 C -8.644531 -14.609375 -7.578125 -14.082031 -6.734375 -13.6875 C -5.898438 -13.289062 -5.226562 -12.992188 -4.71875 -12.796875 C -4.207031 -12.597656 -3.789062 -12.445312 -3.46875 -12.34375 C -3.15625 -12.25 -2.863281 -12.1875 -2.59375 -12.15625 C -0.4375 -11.894531 1.101562 -12.679688 2.03125 -14.515625 C 3.132812 -16.703125 2.644531 -18.738281 0.5625 -20.625 C 0.1875 -20.988281 0.144531 -21.347656 0.4375 -21.703125 L 2.984375 -24.859375 C 3.222656 -25.242188 3.566406 -25.273438 4.015625 -24.953125 C 6.117188 -23.328125 7.421875 -21.378906 7.921875 -19.109375 C 8.421875 -16.835938 8.050781 -14.472656 6.8125 -12.015625 Z M -10.609375 -25.765625 C -10.472656 -26.035156 -10.539062 -26.238281 -10.8125 -26.375 C -11.832031 -26.882812 -12.691406 -27.300781 -13.390625 -27.625 C -14.097656 -27.945312 -14.6875 -28.203125 -15.15625 -28.390625 C -15.625 -28.578125 -16.007812 -28.703125 -16.3125 -28.765625 C -16.613281 -28.828125 -16.882812 -28.894531 -17.125 -28.96875 C -19.207031 -29.289062 -20.734375 -28.492188 -21.703125 -26.578125 C -22.691406 -24.617188 -22.4375 -22.894531 -20.9375 -21.40625 C -20.757812 -21.207031 -20.550781 -21.019531 -20.3125 -20.84375 C -20.070312 -20.664062 -19.738281 -20.4375 -19.3125 -20.15625 C -18.882812 -19.882812 -18.328125 -19.5625 -17.640625 -19.1875 C -16.960938 -18.820312 -16.113281 -18.382812 -15.09375 -17.875 C -14.820312 -17.738281 -14.617188 -17.800781 -14.484375 -18.0625 Z M -10.609375 -25.765625 "/></g></g></g><g fill="#f7b628" fill-opacity="1"><g transform="translate(1066.298598, 1079.798742)"><g><path d="M 7.96875 -18.78125 C 7.769531 -18.320312 7.441406 -18.191406 6.984375 -18.390625 L -15.03125 -27.734375 C -19.039062 -29.429688 -21.660156 -28.828125 -22.890625 -25.921875 C -23.472656 -24.546875 -23.445312 -23.257812 -22.8125 -22.0625 C -22.175781 -20.863281 -20.820312 -19.828125 -18.75 -18.953125 L 3.265625 -9.609375 C 3.722656 -9.410156 3.851562 -9.082031 3.65625 -8.625 L 1.984375 -4.6875 C 1.796875 -4.226562 1.472656 -4.097656 1.015625 -4.296875 L -30.671875 -17.734375 C -31.128906 -17.929688 -31.265625 -18.257812 -31.078125 -18.71875 L -29.40625 -22.65625 C -29.207031 -23.113281 -28.878906 -23.242188 -28.421875 -23.046875 L -25.8125 -21.9375 L -25.78125 -22.015625 C -26.65625 -22.992188 -27.253906 -24.160156 -27.578125 -25.515625 C -27.898438 -26.878906 -27.71875 -28.363281 -27.03125 -29.96875 C -25.9375 -32.539062 -24.300781 -34.125 -22.125 -34.71875 C -19.945312 -35.320312 -17.109375 -34.882812 -13.609375 -33.40625 L 9.25 -23.703125 C 9.707031 -23.503906 9.835938 -23.171875 9.640625 -22.703125 Z M 7.96875 -18.78125 "/></g></g></g><g fill="#f7b628" fill-opacity="1"><g transform="translate(1078.193521, 1051.521855)"><g><path d="M 4.921875 -11.953125 C 3.921875 -9.128906 2.378906 -7.125 0.296875 -5.9375 C -1.773438 -4.757812 -4.253906 -4.519531 -7.140625 -5.21875 C -7.648438 -5.28125 -7.867188 -5.570312 -7.796875 -6.09375 L -7.234375 -9.9375 C -7.171875 -10.4375 -6.890625 -10.65625 -6.390625 -10.59375 C -4.554688 -10.207031 -3.101562 -10.316406 -2.03125 -10.921875 C -0.96875 -11.535156 -0.222656 -12.453125 0.203125 -13.671875 C 0.679688 -15.046875 0.65625 -16.273438 0.125 -17.359375 C -0.394531 -18.441406 -1.484375 -19.273438 -3.140625 -19.859375 C -4.503906 -20.335938 -5.675781 -20.441406 -6.65625 -20.171875 C -7.644531 -19.910156 -8.710938 -19.140625 -9.859375 -17.859375 L -11.921875 -15.390625 C -13.554688 -13.472656 -15.351562 -12.171875 -17.3125 -11.484375 C -19.269531 -10.804688 -21.472656 -10.894531 -23.921875 -11.75 C -26.710938 -12.726562 -28.710938 -14.359375 -29.921875 -16.640625 C -31.140625 -18.921875 -31.242188 -21.492188 -30.234375 -24.359375 C -29.253906 -27.148438 -27.742188 -29.035156 -25.703125 -30.015625 C -23.660156 -30.992188 -21.585938 -31.242188 -19.484375 -30.765625 C -18.929688 -30.671875 -18.679688 -30.394531 -18.734375 -29.9375 L -19.21875 -26.296875 C -19.320312 -25.867188 -19.613281 -25.65625 -20.09375 -25.65625 C -21.4375 -25.75 -22.566406 -25.613281 -23.484375 -25.25 C -24.410156 -24.894531 -25.109375 -24.050781 -25.578125 -22.71875 C -26.054688 -21.351562 -25.992188 -20.195312 -25.390625 -19.25 C -24.796875 -18.300781 -23.8125 -17.585938 -22.4375 -17.109375 C -21.40625 -16.742188 -20.394531 -16.6875 -19.40625 -16.9375 C -18.414062 -17.195312 -17.347656 -17.976562 -16.203125 -19.28125 L -14.140625 -21.75 C -12.210938 -24.039062 -10.273438 -25.394531 -8.328125 -25.8125 C -6.390625 -26.238281 -4.171875 -26.015625 -1.671875 -25.140625 C 1.304688 -24.097656 3.421875 -22.414062 4.671875 -20.09375 C 5.921875 -17.78125 6.003906 -15.066406 4.921875 -11.953125 Z M 4.921875 -11.953125 "/></g></g></g></svg>